HIERARCHY
ROOT pelvis
{
  OFFSET 0 100 0
  CHANNELS 6 Xposition Yposition Zposition Zrotation Xrotation Yrotation
  JOINT pelvis_right_femur
  {
    OFFSET -10.78128 -3.44521 -0.5502486
    CHANNELS 3 Zrotation Xrotation Yrotation
    JOINT right_femur_tibia
    {
      OFFSET -0.8047443 -44.0398 -0.1307829
      CHANNELS 3 Zrotation Xrotation Yrotation
      JOINT right_tibia_foot
      {
        OFFSET 3.006224 -47.83518 -5
        CHANNELS 3 Zrotation Xrotation Yrotation
        End Site
        {
          OFFSET 0 -5 15
        }
      }
    }
  }
  JOINT pelvis_left_femur
  {
    OFFSET 10.78128 -3.44521 -0.5502486
    CHANNELS 3 Zrotation Xrotation Yrotation
    JOINT left_femur_tibia
    {
      OFFSET 0.8047443 -44.0398 -0.1307829
      CHANNELS 3 Zrotation Xrotation Yrotation
      JOINT left_tibia_foot
      {
        OFFSET -4.370144 -48.10324 -4.275266
        CHANNELS 3 Zrotation Xrotation Yrotation
        End Site
        {
          OFFSET 0 -5 15
        }
      }
    }
  }
  JOINT pelvis_spine1
  {
    OFFSET 0 6.468898 -3.129235
    CHANNELS 3 Zrotation Xrotation Yrotation
    JOINT spine1
    {
      OFFSET 0 23.15396 4.99043
      CHANNELS 3 Zrotation Xrotation Yrotation
      JOINT spine2
      {
        OFFSET 0 20.79997 -5.064912
        CHANNELS 3 Zrotation Xrotation Yrotation
        JOINT neck
        {
          OFFSET 0 14.38658 9.616178
          CHANNELS 3 Zrotation Xrotation Yrotation
          End Site
          {
            OFFSET 0 20 0
          }
        }
      }
      JOINT right_manubrium
      {
        OFFSET -5.722621 16.35077 3.967754
        CHANNELS 3 Zrotation Xrotation Yrotation
        JOINT right_clavicle
        {
          OFFSET -13.16364 1.694482 -4.693211
          CHANNELS 3 Zrotation Xrotation Yrotation
          JOINT right_humerus
          {
            OFFSET -28.5034 -0.3100689 -2.792744
            CHANNELS 3 Zrotation Xrotation Yrotation
            JOINT right_radius
            {
              OFFSET -25.15693 0.02248979 -1.271978
              CHANNELS 3 Zrotation Xrotation Yrotation
              End Site
              {
                OFFSET -15 0 0
              }
            }
          }
        }
      }
      JOINT left_manubrium
      {
        OFFSET 5.722621 16.35077 3.967754
        CHANNELS 3 Zrotation Xrotation Yrotation
        JOINT left_clavicle
        {
          OFFSET 13.16364 1.694482 -4.693211
          CHANNELS 3 Zrotation Xrotation Yrotation
          JOINT left_humerus
          {
            OFFSET 29.39168 -1.063119 -2.237045
            CHANNELS 3 Zrotation Xrotation Yrotation
            JOINT left_radius
            {
              OFFSET 24.59957 -0.9528479 0.9047498
              CHANNELS 3 Zrotation Xrotation Yrotation
              End Site
              {
                OFFSET 15 -0 -0
              }
            }
          }
        }
      }
    }
  }
}
MOTION
Frames: 7
Frame Time: 0.0416666666667
0 103.5113 0 1.270157 -0.6344864 0.09787429 3.031454 -17.0225 7.954202 -0 36.08057 -0 -5.338241 -16.07968 -3.226387 -7.247138 11.8401 -23.35757 -0 4.760291 -0 6.680929 -18.15098 25.51584 -4.282078 -5.516897 5.398072 2.623897 9.005408 -8.683524 1.094051 21.57396 6.669047 2.095173 -25.33565 9.744828 5.963238 -21.99532 11.57198 82.70334 32.66614 -15.79972 -0 0 20.58132 -10.61943 8.158786 5.191936 9.263329 -21.72633 3.430417 -93.42097 19.26824 21.4049 0 0 -8.915862 14.55984 20.25608 -5.049579
0.1772102 103.4383 1.557489 0.4198302 -0.0478572 0.06553115 4.326644 -20.41668 8.49902 -0 35.87557 -0 -5.470162 -14.85971 -3.529994 -6.523383 11.96057 -23.10661 -0 5.42309 -0 4.916395 -19.67578 24.90746 -4.029957 -5.164958 5.410704 2.629034 9.162273 -8.529469 1.145376 21.54408 6.650518 2.196531 -25.35941 9.69377 5.901641 -21.60988 11.56037 83.05609 33.09455 -16.07251 -0 0 19.77747 -10.3065 8.267026 5.136884 8.882639 -21.70863 2.979515 -93.34372 19.59057 21.4321 0 0 -9.742302 14.28319 19.66379 -4.43019
0.361219 103.1766 3.461142 -0.2984644 0.5262286 0.02694608 5.40644 -24.63466 7.877377 -0 32.57018 -0 -6.089797 -12.53787 -3.303154 -5.931432 12.28392 -21.85886 -0 5.767775 -0 4.590027 -20.98491 23.86967 -3.656574 -4.353902 5.28807 2.792092 9.36259 -8.292566 1.170832 21.511 6.686701 2.304426 -25.66063 9.683611 5.637994 -20.96441 11.70271 83.86697 33.76411 -16.50246 -0 0 18.21287 -9.856486 8.340528 5.182936 8.048652 -21.49187 2.207627 -92.87936 19.58375 21.17357 0 0 -11.14979 14.19256 18.20292 -4.094124
0.5764134 102.7151 5.744196 -0.8130408 1.408302 0.0295126 6.301913 -28.64234 7.617739 -0 28.69025 -0 -6.159847 -10.47505 -3.136299 -5.551334 12.5167 -20.63757 -0 5.899075 -0 4.591143 -22.11318 22.81642 -3.351203 -3.75285 5.095415 2.974859 9.440086 -8.17598 1.217272 21.40642 6.802376 2.429834 -26.0977 9.832356 5.498485 -20.41991 11.76026 84.59422 34.19467 -17.17143 -0 0 16.98528 -9.153068 8.316778 4.955972 7.534116 -21.2927 1.637466 -92.56945 19.81327 20.78861 0 0 -12.4369 14.18542 17.05073 -3.848299
0.818149 102.0244 8.515115 -1.096496 2.434226 0.1457558 6.850518 -32.23142 7.07604 -0 23.81801 -0 -6.110645 -8.341518 -2.81965 -5.412957 12.94464 -19.31727 -0 6.122296 -0 4.883868 -23.03574 21.63295 -3.089387 -3.225255 4.889786 3.143747 9.487183 -8.100931 1.239727 21.27569 6.949232 2.566383 -26.47969 9.975644 5.39653 -19.94223 11.82477 85.25401 34.59162 -17.81137 -0 0 15.88943 -8.562798 8.315012 4.794266 7.134617 -21.14013 1.132347 -92.2013 19.99566 20.32389 0 0 -13.77637 14.20121 15.98194 -3.671549
1.071597 101.1528 11.85076 -1.253593 3.478076 0.4293899 7.155945 -35.03415 6.433911 -0 18.93374 -0 -6.022568 -6.249531 -2.477252 -5.411392 13.60099 -18.08285 -0 6.906131 -0 4.860459 -23.69653 20.24897 -2.865698 -2.789799 4.696525 3.282155 9.514898 -8.058872 1.24499 21.12901 7.102421 2.707826 -26.77334 10.091 5.335796 -19.5363 11.87946 85.81373 34.94992 -18.39262 -0 0 14.95687 -8.103128 8.350811 4.698004 6.849457 -21.04435 0.6956692 -91.82355 20.16561 19.84589 0 0 -15.08893 14.19887 15.05219 -3.495414
1.315847 100.2077 15.8217 -1.403386 4.328028 0.9138686 7.331334 -36.65686 5.735755 -0 14.91985 -0 -6.103216 -4.253527 -2.145729 -5.412463 14.46623 -16.96684 -0 8.770263 -0 4.083173 -23.84922 18.52084 -2.673514 -2.428298 4.52917 3.385304 9.542224 -8.036965 1.233019 20.98185 7.245889 2.846613 -26.96293 10.15767 5.296585 -19.19429 11.93089 86.28799 35.27619 -18.89163 -0 0 14.15702 -7.813492 8.434289 4.691323 6.64101 -21.00698 0.3086103 -91.43311 20.29704 19.37663 0 0 -16.34527 14.15993 14.2392 -3.30206
